<svg width="185" height="26" viewBox="0 0 185 26" fill="none" xmlns="http://www.w3.org/2000/svg">
<path d="M7.64851 13L15.948 5.5H9.24749L2.59006 11.5161C1.7113 12.3102 1.7113 13.6898 2.59006 14.4839L9.24749 20.5H15.948L7.64851 13Z" fill="#FF57B2"/>
<path d="M23.6606 14.7385C23.6606 18.0339 25.5029 19.2016 28.2534 19.2016H30.5368V16.1397H28.8502C27.7085 16.1397 27.3193 15.7245 27.3193 14.7645V7.81038H30.5368V4.82635H27.3193V1.27146H23.6606V4.82635H21.948V7.81038H23.6606V14.7385Z" fill="white"/>
<path d="M36.7824 12.0399C36.7824 9.26347 38.0798 8.43313 40.2335 8.43313H41.1936V4.61876C39.1956 4.61876 37.6906 5.57884 36.7824 7.05788V4.82635H33.1497V19.2016H36.7824V12.0399Z" fill="white"/>
<path d="M49.7642 14.8683L46.0536 4.82635H41.9797L47.7402 18.8383L44.6264 26H48.4927L57.3929 4.82635H53.5266L49.7642 14.8683Z" fill="white"/>
<path d="M63.1655 17.2555C63.1655 16.0619 62.2314 15.1277 60.96 15.1277C59.6366 15.1277 58.7025 16.0619 58.7025 17.2555C58.7025 18.4491 59.6366 19.3832 60.96 19.3832C62.2314 19.3832 63.1655 18.4491 63.1655 17.2555Z" fill="#FF57B2"/>
<path d="M69.906 17.2555C69.906 16.0619 68.9718 15.1277 67.7004 15.1277C66.377 15.1277 65.4429 16.0619 65.4429 17.2555C65.4429 18.4491 66.377 19.3832 67.7004 19.3832C68.9718 19.3832 69.906 18.4491 69.906 17.2555Z" fill="#FF57B2"/>
<path d="M76.6464 17.2555C76.6464 16.0619 75.7123 15.1277 74.4408 15.1277C73.1175 15.1277 72.1833 16.0619 72.1833 17.2555C72.1833 18.4491 73.1175 19.3832 74.4408 19.3832C75.7123 19.3832 76.6464 18.4491 76.6464 17.2555Z" fill="#FF57B2"/>
<path d="M78.6383 12.014C78.6383 16.5289 81.5964 19.4351 85.7481 19.4351C89.3289 19.4351 91.7421 17.4112 92.5206 14.3493H88.6024C88.1613 15.6467 87.2271 16.3214 85.7222 16.3214C83.6982 16.3214 82.3489 14.8164 82.3489 12.014C82.3489 9.21158 83.6982 7.68064 85.7222 7.68064C87.2271 7.68064 88.1872 8.45908 88.6024 9.67864H92.5206C91.7421 6.46108 89.3289 4.59281 85.7481 4.59281C81.5964 4.59281 78.6383 7.499 78.6383 12.014Z" fill="white"/>
<path d="M94.2477 11.9621C94.2477 16.4511 97.1539 19.4351 100.787 19.4351C103.07 19.4351 104.705 18.3453 105.561 17.0998V19.2016H109.22V4.82635H105.561V6.87625C104.705 5.68263 103.122 4.59281 100.813 4.59281C97.1539 4.59281 94.2477 7.47305 94.2477 11.9621ZM105.561 12.014C105.561 14.7385 103.745 16.2435 101.747 16.2435C99.8006 16.2435 97.9583 14.6866 97.9583 11.9621C97.9583 9.23752 99.8006 7.78443 101.747 7.78443C103.745 7.78443 105.561 9.28942 105.561 12.014Z" fill="white"/>
<path d="M113.339 14.7385C113.339 18.0339 115.181 19.2016 117.931 19.2016H120.215V16.1397H118.528C117.387 16.1397 116.997 15.7245 116.997 14.7645V7.81038H120.215V4.82635H116.997V1.27146H113.339V4.82635H111.626V7.81038H113.339V14.7385Z" fill="white"/>
<path d="M121.894 12.014C121.894 16.5289 124.852 19.4351 129.003 19.4351C132.584 19.4351 134.997 17.4112 135.776 14.3493H131.858C131.417 15.6467 130.482 16.3214 128.977 16.3214C126.953 16.3214 125.604 14.8164 125.604 12.014C125.604 9.21158 126.953 7.68064 128.977 7.68064C130.482 7.68064 131.443 8.45908 131.858 9.67864H135.776C134.997 6.46108 132.584 4.59281 129.003 4.59281C124.852 4.59281 121.894 7.499 121.894 12.014Z" fill="white"/>
<path d="M138.437 19.2016H142.07V11.2615C142.07 8.9521 143.341 7.70659 145.313 7.70659C147.234 7.70659 148.505 8.9521 148.505 11.2615V19.2016H152.138V10.7685C152.138 6.7984 149.776 4.61876 146.533 4.61876C144.613 4.61876 143.004 5.39721 142.07 6.61677V0H138.437V19.2016Z" fill="white"/>
<path d="M158.138 23H161.504L168.138 3H164.772L158.138 23Z" fill="#FF57B2"/>
<path d="M177.437 13L169.138 20.5L175.838 20.5L182.496 14.4839C183.374 13.6898 183.374 12.3102 182.496 11.5161L175.838 5.5H169.138L177.437 13Z" fill="#FF57B2"/>
</svg>
