<svg width="255" height="103" viewBox="0 0 255 103" fill="none" xmlns="http://www.w3.org/2000/svg">
<rect width="254.052" height="102.418" fill="#1A1D23"/>
<path d="M46.873 37L37 49.5746L46.873 62.1471L49.2075 58.1279L42.5545 49.5725L49.2075 41.0171L46.873 37ZM51.1936 61.8468H55.5265L62.4153 37.2316H58.0803L51.1936 61.8468ZM67.0946 37L64.7601 41.0192L71.4131 49.5746L64.7601 58.13L67.0946 62.1492L76.9676 49.5768L67.0946 37Z" fill="#FF57B2"/>
<path d="M88.6788 53.1095C88.6788 56.7114 90.5196 57.9877 93.2679 57.9877H95.5495V54.641H93.8642C92.7234 54.641 92.3345 54.1872 92.3345 53.1378V45.5369H95.5495V42.2753H92.3345V38.3897H88.6788V42.2753H86.9676V45.5369H88.6788V53.1095Z" fill="white"/>
<path d="M101.79 50.1599C101.79 47.1251 103.086 46.2176 105.238 46.2176H106.198V42.0484C104.201 42.0484 102.697 43.0978 101.79 44.7144V42.2753H98.1602V57.9877H101.79V50.1599Z" fill="white"/>
<path d="M114.761 53.2513L111.054 42.2753H106.983L112.739 57.5906L109.628 65.4185H113.491L122.384 42.2753H118.521L114.761 53.2513Z" fill="white"/>
<path d="M128.152 55.8606C128.152 54.5559 127.218 53.5349 125.948 53.5349C124.626 53.5349 123.692 54.5559 123.692 55.8606C123.692 57.1652 124.626 58.1862 125.948 58.1862C127.218 58.1862 128.152 57.1652 128.152 55.8606Z" fill="#FF57B2"/>
<path d="M134.887 55.8606C134.887 54.5559 133.953 53.5349 132.683 53.5349C131.361 53.5349 130.427 54.5559 130.427 55.8606C130.427 57.1652 131.361 58.1862 132.683 58.1862C133.953 58.1862 134.887 57.1652 134.887 55.8606Z" fill="#FF57B2"/>
<path d="M141.622 55.8606C141.622 54.5559 140.688 53.5349 139.418 53.5349C138.096 53.5349 137.162 54.5559 137.162 55.8606C137.162 57.1652 138.096 58.1862 139.418 58.1862C140.688 58.1862 141.622 57.1652 141.622 55.8606Z" fill="#FF57B2"/>
<path d="M143.612 50.1315C143.612 55.0664 146.568 58.243 150.716 58.243C154.294 58.243 156.705 56.0307 157.483 52.684H153.568C153.127 54.1021 152.194 54.8395 150.69 54.8395C148.668 54.8395 147.32 53.1946 147.32 50.1315C147.32 47.0684 148.668 45.3951 150.69 45.3951C152.194 45.3951 153.153 46.2459 153.568 47.5789H157.483C156.705 44.0621 154.294 42.02 150.716 42.02C146.568 42.02 143.612 45.1965 143.612 50.1315Z" fill="white"/>
<path d="M159.209 50.0748C159.209 54.9814 162.113 58.243 165.742 58.243C168.024 58.243 169.657 57.0518 170.513 55.6904V57.9877H174.169V42.2753H170.513V44.5159C169.657 43.2112 168.076 42.02 165.768 42.02C162.113 42.02 159.209 45.1682 159.209 50.0748ZM170.513 50.1315C170.513 53.1095 168.698 54.7545 166.702 54.7545C164.757 54.7545 162.916 53.0528 162.916 50.0748C162.916 47.0968 164.757 45.5085 166.702 45.5085C168.698 45.5085 170.513 47.1535 170.513 50.1315Z" fill="white"/>
<path d="M178.284 53.1095C178.284 56.7114 180.125 57.9877 182.873 57.9877H185.155V54.641H183.47C182.329 54.641 181.94 54.1872 181.94 53.1378V45.5369H185.155V42.2753H181.94V38.3897H178.284V42.2753H176.573V45.5369H178.284V53.1095Z" fill="white"/>
<path d="M186.832 50.1315C186.832 55.0664 189.788 58.243 193.936 58.243C197.514 58.243 199.925 56.0307 200.703 52.684H196.788C196.347 54.1021 195.414 54.8395 193.91 54.8395C191.888 54.8395 190.54 53.1946 190.54 50.1315C190.54 47.0684 191.888 45.3951 193.91 45.3951C195.414 45.3951 196.373 46.2459 196.788 47.5789H200.703C199.925 44.0621 197.514 42.02 193.936 42.02C189.788 42.02 186.832 45.1965 186.832 50.1315Z" fill="white"/>
<path d="M203.362 57.9877H206.992V49.309C206.992 46.7848 208.263 45.4234 210.233 45.4234C212.152 45.4234 213.422 46.7848 213.422 49.309V57.9877H217.052V48.7701C217.052 44.4308 214.692 42.0484 211.452 42.0484C209.533 42.0484 207.926 42.8992 206.992 44.2322V37H203.362V57.9877Z" fill="white"/>
</svg>
